<svg xmlns="http://www.w3.org/2000/svg" viewBox="0 0 71.86 71.86"><defs><style>.a{fill:#212632;}</style></defs><title>grid</title><path class="a" d="M208.26,196a1.86,1.86,0,0,0-2.72,0,1.88,1.88,0,0,0,0,2.73,1.93,1.93,0,0,0,2.73-2.72Z" transform="translate(-164.17 -154.62)"/><path class="a" d="M221.88,209.61a1.93,1.93,0,1,0-.07,2.72A1.86,1.86,0,0,0,221.88,209.61Z" transform="translate(-164.17 -154.62)"/><path class="a" d="M235.45,223.18a1.93,1.93,0,1,0,0,2.72A1.86,1.86,0,0,0,235.45,223.18Z" transform="translate(-164.17 -154.62)"/><path class="a" d="M164.76,171.53a1.93,1.93,0,1,0,0-2.73A1.86,1.86,0,0,0,164.76,171.53Z" transform="translate(-164.17 -154.62)"/><path class="a" d="M178.33,185.1a1.93,1.93,0,1,0,0-2.73A1.88,1.88,0,0,0,178.33,185.1Z" transform="translate(-164.17 -154.62)"/><path class="a" d="M194.65,196a1.93,1.93,0,1,0,0,2.72A1.86,1.86,0,0,0,194.65,196Z" transform="translate(-164.17 -154.62)"/><path class="a" d="M208.31,209.63a1.86,1.86,0,0,0-2.72-.11,1.88,1.88,0,0,0-.11,2.73,1.93,1.93,0,0,0,2.83-2.62Z" transform="translate(-164.17 -154.62)"/><path class="a" d="M221.87,223.19a1.93,1.93,0,1,0-.05,2.72A1.87,1.87,0,0,0,221.87,223.19Z" transform="translate(-164.17 -154.62)"/><path class="a" d="M164.77,185.13a1.93,1.93,0,1,0,0-2.73A1.87,1.87,0,0,0,164.77,185.13Z" transform="translate(-164.17 -154.62)"/><path class="a" d="M178.45,195.89a1.93,1.93,0,1,0,2.72.19A1.87,1.87,0,0,0,178.45,195.89Z" transform="translate(-164.17 -154.62)"/><path class="a" d="M194.72,209.63a1.93,1.93,0,1,0-.11,2.72A1.87,1.87,0,0,0,194.72,209.63Z" transform="translate(-164.17 -154.62)"/><path class="a" d="M208.24,223.14a1.93,1.93,0,1,0-2.68,2.77,1.93,1.93,0,0,0,2.68-2.77Z" transform="translate(-164.17 -154.62)"/><path class="a" d="M164.76,198.71a1.93,1.93,0,1,0,0-2.73A1.86,1.86,0,0,0,164.76,198.71Z" transform="translate(-164.17 -154.62)"/><path class="a" d="M181.05,209.55a1.93,1.93,0,1,0-2.67,2.78,1.93,1.93,0,0,0,2.67-2.78Z" transform="translate(-164.17 -154.62)"/><path class="a" d="M194.69,223.19a1.93,1.93,0,1,0-.05,2.72A1.87,1.87,0,0,0,194.69,223.19Z" transform="translate(-164.17 -154.62)"/><path class="a" d="M164.71,212.25a1.93,1.93,0,1,0,.11-2.73A1.86,1.86,0,0,0,164.71,212.25Z" transform="translate(-164.17 -154.62)"/><path class="a" d="M181.11,223.2a1.93,1.93,0,1,0-.07,2.72A1.86,1.86,0,0,0,181.11,223.2Z" transform="translate(-164.17 -154.62)"/><path class="a" d="M167.46,223.14a1.93,1.93,0,1,0,0,2.72A1.87,1.87,0,0,0,167.46,223.14Z" transform="translate(-164.17 -154.62)"/><path class="a" d="M205.54,157.94a1.92,1.92,0,1,0,0-2.72A1.86,1.86,0,0,0,205.54,157.94Z" transform="translate(-164.17 -154.62)"/><path class="a" d="M221.75,171.62a1.93,1.93,0,1,0-2.72-.19A1.88,1.88,0,0,0,221.75,171.62Z" transform="translate(-164.17 -154.62)"/><path class="a" d="M235.46,182.42a1.93,1.93,0,1,0-.05,2.72A1.87,1.87,0,0,0,235.46,182.42Z" transform="translate(-164.17 -154.62)"/><path class="a" d="M192,158a1.92,1.92,0,1,0-.05-2.72A1.85,1.85,0,0,0,192,158Z" transform="translate(-164.17 -154.62)"/><path class="a" d="M208.28,168.83a1.93,1.93,0,1,0-.05,2.72A1.87,1.87,0,0,0,208.28,168.83Z" transform="translate(-164.17 -154.62)"/><path class="a" d="M221.86,182.41a1.93,1.93,0,1,0,0,2.72A1.86,1.86,0,0,0,221.86,182.41Z" transform="translate(-164.17 -154.62)"/><path class="a" d="M235.44,196a1.93,1.93,0,1,0,0,2.72A1.87,1.87,0,0,0,235.44,196Z" transform="translate(-164.17 -154.62)"/><path class="a" d="M178.34,157.93a1.93,1.93,0,1,0,0-2.73A1.87,1.87,0,0,0,178.34,157.93Z" transform="translate(-164.17 -154.62)"/><path class="a" d="M191.93,171.52a1.93,1.93,0,1,0,0-2.73A1.87,1.87,0,0,0,191.93,171.52Z" transform="translate(-164.17 -154.62)"/><path class="a" d="M208.32,182.45a1.93,1.93,0,1,0-.12,2.72A1.87,1.87,0,0,0,208.32,182.45Z" transform="translate(-164.17 -154.62)"/><path class="a" d="M221.85,196a1.86,1.86,0,0,0-2.72,0,1.88,1.88,0,0,0,0,2.73,1.93,1.93,0,0,0,2.73-2.72Z" transform="translate(-164.17 -154.62)"/><path class="a" d="M235.45,209.59a1.93,1.93,0,1,0,0,2.72A1.86,1.86,0,0,0,235.45,209.59Z" transform="translate(-164.17 -154.62)"/><path class="a" d="M164.75,157.93a1.93,1.93,0,1,0,0-2.73A1.87,1.87,0,0,0,164.75,157.93Z" transform="translate(-164.17 -154.62)"/><path class="a" d="M178.3,171.48a1.93,1.93,0,1,0,.11-2.73A1.87,1.87,0,0,0,178.3,171.48Z" transform="translate(-164.17 -154.62)"/><path class="a" d="M194.69,182.42a1.93,1.93,0,1,0-.05,2.72A1.85,1.85,0,0,0,194.69,182.42Z" transform="translate(-164.17 -154.62)"/><path class="a" d="M235.46,155.24a1.93,1.93,0,1,0-.05,2.72A1.87,1.87,0,0,0,235.46,155.24Z" transform="translate(-164.17 -154.62)"/><path class="a" d="M235.34,171.62a1.93,1.93,0,1,0-2.72-.19A1.87,1.87,0,0,0,235.34,171.62Z" transform="translate(-164.17 -154.62)"/><path class="a" d="M219.54,157.94a1.92,1.92,0,1,0,0-2.72A1.86,1.86,0,0,0,219.54,157.94Z" transform="translate(-164.17 -154.62)"/></svg>