<svg xmlns="http://www.w3.org/2000/svg" viewBox="0 0 173.29 173.29"><defs><style>.a{fill:#2a303f;}</style></defs><title>circles</title><path class="a" d="M205.77,261.31a69.66,69.66,0,1,1,69.66-69.66A69.74,69.74,0,0,1,205.77,261.31Zm0-137.32a67.66,67.66,0,1,0,67.66,67.66A67.73,67.73,0,0,0,205.77,124Z" transform="translate(-119.13 -106)"/><path class="a" d="M205.77,244.37a52.73,52.73,0,1,1,52.73-52.72A52.79,52.79,0,0,1,205.77,244.37Zm0-103.45a50.73,50.73,0,1,0,50.73,50.73A50.79,50.79,0,0,0,205.77,140.92Z" transform="translate(-119.13 -106)"/><path class="a" d="M205.77,227.44a35.8,35.8,0,1,1,35.8-35.79A35.83,35.83,0,0,1,205.77,227.44Zm0-69.59a33.8,33.8,0,1,0,33.8,33.8A33.83,33.83,0,0,0,205.77,157.85Z" transform="translate(-119.13 -106)"/><path class="a" d="M205.77,210.51a18.87,18.87,0,1,1,18.86-18.86A18.88,18.88,0,0,1,205.77,210.51Zm0-35.73a16.87,16.87,0,1,0,16.86,16.87A16.88,16.88,0,0,0,205.77,174.78Z" transform="translate(-119.13 -106)"/><path class="a" d="M205.77,279.29a86.65,86.65,0,1,1,86.65-86.64A86.74,86.74,0,0,1,205.77,279.29Zm0-171.62a85,85,0,1,0,85,85A85.07,85.07,0,0,0,205.77,107.67Z" transform="translate(-119.13 -106)"/></svg>